<svg xmlns="http://www.w3.org/2000/svg" viewBox="0 0 100 100"><defs><style>.cls-1{fill:#fff;}.cls-2{fill:none;}</style></defs><title>facebookIco</title><g id="Capa_2" data-name="Capa 2"><g id="Capa_1-2" data-name="Capa 1"><path id="Facebook_alt_" data-name="Facebook (alt)" class="cls-1" d="M92.5,21.67A14.68,14.68,0,0,0,78.33,7.5H21.67A14.68,14.68,0,0,0,7.5,21.67V78.33A14.68,14.68,0,0,0,21.67,92.5H50V60.39H39.61V46.22H50V40.7c0-9.52,7.15-18.09,15.94-18.09H77.39V36.78H65.94c-1.26,0-2.72,1.52-2.72,3.8v5.64H77.39V60.39H63.22V92.5H78.33A14.68,14.68,0,0,0,92.5,78.33Z"/><rect class="cls-2" width="100" height="100"/></g></g></svg>