<svg xmlns="http://www.w3.org/2000/svg" viewBox="0 0 100 100"><defs><style>.cls-1{fill:#fff;}.cls-2{fill:none;}</style></defs><title>instagramIco</title><g id="Capa_2" data-name="Capa 2"><g id="Capa_1-2" data-name="Capa 1"><path class="cls-1" d="M69,7.5H31A23.48,23.48,0,0,0,7.5,31V69A23.48,23.48,0,0,0,31,92.5H69A23.48,23.48,0,0,0,92.5,69V31A23.48,23.48,0,0,0,69,7.5ZM85,69A15.94,15.94,0,0,1,69,85H31A15.94,15.94,0,0,1,15,69V31A15.94,15.94,0,0,1,31,15H69A15.94,15.94,0,0,1,85,31V69Z"/><path class="cls-1" d="M50,28.1A21.9,21.9,0,1,0,71.9,50,21.92,21.92,0,0,0,50,28.1Zm0,36.26A14.36,14.36,0,1,1,64.36,50,14.37,14.37,0,0,1,50,64.36Z"/><path class="cls-1" d="M72.82,21.7a5.53,5.53,0,1,0,3.91,1.62A5.58,5.58,0,0,0,72.82,21.7Z"/><rect class="cls-2" width="100" height="100"/></g></g></svg>