<svg xmlns="http://www.w3.org/2000/svg" viewBox="0 0 100 100"><defs><style>.cls-1{fill:#fff;}.cls-2{fill:none;}</style></defs><title>twitterIco</title><g id="Capa_2" data-name="Capa 2"><g id="Capa_1-2" data-name="Capa 1"><path class="cls-1" d="M76.56,7.5H23.44A15.93,15.93,0,0,0,7.5,23.44V76.56A15.93,15.93,0,0,0,23.44,92.5H76.56A15.93,15.93,0,0,0,92.5,76.56V23.44A15.93,15.93,0,0,0,76.56,7.5Zm-5.42,33,0,1.35c0,13.84-10.53,29.77-29.78,29.77a29.59,29.59,0,0,1-16-4.7,20.43,20.43,0,0,0,2.49.15,21,21,0,0,0,13-4.48,10.49,10.49,0,0,1-9.78-7.26,11.54,11.54,0,0,0,2,.18,10.87,10.87,0,0,0,2.76-.36,10.47,10.47,0,0,1-8.39-10.26v-.14A10.41,10.41,0,0,0,32.16,46a10.49,10.49,0,0,1-3.25-14A29.7,29.7,0,0,0,50.48,43a10.34,10.34,0,0,1-.27-2.38,10.48,10.48,0,0,1,18.11-7.16A20.94,20.94,0,0,0,75,30.91a10.45,10.45,0,0,1-4.6,5.79,21.21,21.21,0,0,0,6-1.64A21.14,21.14,0,0,1,71.14,40.46Z"/><rect class="cls-2" width="100" height="100"/></g></g></svg>