<svg xmlns="http://www.w3.org/2000/svg" viewBox="0 0 100 100"><defs><style>.cls-1{fill:#fff;}.cls-2{fill:none;}</style></defs><title>whatsappIco</title><g id="Capa_2" data-name="Capa 2"><g id="Capa_1-2" data-name="Capa 1"><path id="WhatsApp" class="cls-1" d="M92.5,48.91A41.8,41.8,0,0,1,30.6,85.16L7.5,92.5,15,70.28A40.92,40.92,0,0,1,9,48.91a41.73,41.73,0,0,1,83.46,0ZM50.77,14.09A35,35,0,0,0,15.69,48.91a34.41,34.41,0,0,0,6.68,20.4L18,82.24,31.47,78a34.91,34.91,0,1,0,19.3-63.87ZM71.84,58.44c-.25-.42-.93-.68-2-1.18s-6-3-7-3.3-1.62-.51-2.3.5-2.64,3.3-3.24,4-1.19.77-2.21.26a28,28,0,0,1-8.23-5,30.63,30.63,0,0,1-5.69-7c-.59-1-.06-1.56.45-2.07s1-1.18,1.53-1.77a6.78,6.78,0,0,0,1-1.7,1.85,1.85,0,0,0-.09-1.78c-.25-.5-2.3-5.5-3.15-7.53s-1.71-1.69-2.3-1.69-1.28-.09-2-.09A3.79,3.79,0,0,0,34,31.27a11.34,11.34,0,0,0-3.58,8.47c0,5,3.66,9.82,4.18,10.49s7.07,11.26,17.47,15.32,10.4,2.71,12.27,2.54,6-2.45,6.91-4.82S72.1,58.86,71.84,58.44Z"/><rect class="cls-2" width="100" height="100"/></g></g></svg>