<svg xmlns="http://www.w3.org/2000/svg" viewBox="0 0 369.36 402.05"><defs><style>.cls-1{font-size:72px;}.cls-1,.cls-2{fill:#2a3b80;font-family:Lobster-Regular, Lobster;}.cls-2{font-size:41px;}.cls-3{opacity:0.3;}.cls-4{fill:#424242;}.cls-5{fill:#689f38;}.cls-6{fill:#ff8f00;}.cls-7{fill:#5e35b1;}</style></defs><title>Logo_2018</title><g id="Capa_2" data-name="Capa 2"><g id="Propuesta_imagotipo_5"><text class="cls-1" transform="translate(0 332.96)">Familia </text><text class="cls-1" transform="translate(231.98 332.96) scale(0.99 1)">Vital</text><text class="cls-2" transform="translate(21.63 381.96) scale(0.99 1)">Beneficios para todos</text><g class="cls-3"><ellipse class="cls-4" cx="253.24" cy="48" rx="41" ry="47"/><path class="cls-4" d="M127.24,58s40-22,78-22V54S182.24,46,127.24,58Z"/><path class="cls-4" d="M213.24,265s141-62,81-184c0,0-11,19-29,19C265.24,100,316.24,207,213.24,265Z"/><ellipse class="cls-4" cx="201.69" cy="119.73" rx="26.5" ry="30.38"/><path class="cls-4" d="M123.75,141.53S146,122.18,170,117l2.45,11.37S156.87,126.46,123.75,141.53Z"/><path class="cls-4" d="M202,262.46s82.47-55.77,30.17-126.39c0,0-4.79,13.35-16.24,15.44C216,151.51,260.79,213.64,202,262.46Z"/><ellipse class="cls-4" cx="97.2" cy="99.69" rx="36" ry="39" transform="translate(-38.91 70.36) rotate(-33.56)"/><path class="cls-4" d="M202.26,70.16s-39.27-5-71.51,5.56L135.11,89S152.69,76.67,202.26,70.16Z"/><path class="cls-4" d="M190.85,260.18S59,251.88,71.25,135.87c0,0,14.48,12.06,29,6.74C100.23,142.61,90.74,243.88,190.85,260.18Z"/></g><ellipse class="cls-5" cx="255.24" cy="47" rx="41" ry="47"/><path class="cls-5" d="M129.24,57s40-22,78-22V53S184.24,45,129.24,57Z"/><path class="cls-5" d="M215.24,264s141-62,81-184c0,0-11,19-29,19C267.24,99,318.24,206,215.24,264Z"/><ellipse class="cls-6" cx="203.69" cy="118.73" rx="26.5" ry="30.38"/><path class="cls-6" d="M125.75,140.53S148,121.18,172,116l2.45,11.37S158.87,125.46,125.75,140.53Z"/><path class="cls-6" d="M204,261.46s82.47-55.77,30.17-126.39c0,0-4.79,13.35-16.24,15.44C218,150.51,262.79,212.64,204,261.46Z"/><ellipse class="cls-7" cx="95.2" cy="97.69" rx="36" ry="39" transform="translate(-38.14 68.92) rotate(-33.56)"/><path class="cls-7" d="M200.26,68.16s-39.27-5-71.51,5.56L133.11,87S150.69,74.67,200.26,68.16Z"/><path class="cls-7" d="M188.85,258.18S57,249.88,69.25,133.87c0,0,14.48,12.06,29,6.74C98.23,140.61,88.74,241.88,188.85,258.18Z"/></g></g></svg>